<svg xmlns="http://www.w3.org/2000/svg" viewBox="0 40 140 60">
<path fill="white" d="M104.6,81.4c-7.9,0-12.6-5-12.6-12.9c0-8.8,5.5-13.1,12.5-13.1c3.2,0,5.7,0.7,7.5,1.5l1.9-7    c-1.6-0.8-5.1-1.8-9.7-1.8c-10.9,0-19.9,6.2-21.3,17.5H68.6v7h6.1v8.3c-0.7,0.3-2.3,0.5-4.3,0.5c-7.3,0-12.5-4.7-12.5-13    c0-8.6,5.7-12.8,13.1-12.8c4.3,0,7,0.7,9.1,1.7l1.9-7.2c-1.9-0.9-5.9-1.9-11-1.9c-13,0-22.5,7.5-22.6,20.6c0,4.5,1.2,8.6,3.4,11.8    H39.2v-32h-8.9v39.5h24.6v-4.1c3.6,3,8.6,4.6,15.2,4.6c5.2,0,10.4-1.3,13.2-2.2V74.9c2.1,8.3,8.8,14,20,14c4.7,0,8.5-0.9,10.1-1.7    l-1.3-7C110.2,80.9,107.3,81.4,104.6,81.4z"/>
</svg>