<svg width="67" height="23" viewBox="0 0 67 23" fill="none" xmlns="http://www.w3.org/2000/svg">
<path fill-rule="evenodd" clip-rule="evenodd" d="M17.5933 5.35474C19.384 5.35474 20.8292 5.95621 21.9288 7.15917C23.0284 8.33046 23.5624 9.91329 23.5624 11.9077V21.6263H18.85V12.3192C18.85 10.7047 18.0645 9.72335 16.588 9.72335C15.0486 9.72335 14.1375 10.8313 14.1375 12.6991V21.6263H9.42498V12.3192C9.42498 10.7047 8.63956 9.72335 7.16298 9.72335C5.62357 9.72335 4.71249 10.8313 4.71249 12.6991V21.6263H0V5.79793H4.71249V7.25414C5.56074 5.98787 6.97448 5.35474 8.92231 5.35474C10.7445 5.35474 12.1268 6.05118 13.0379 7.44408C14.0118 6.05118 15.5198 5.35474 17.5933 5.35474Z" fill="#334bcc"/>
<path fill-rule="evenodd" clip-rule="evenodd" d="M40.6495 10.4103C40.6495 11.0423 41.8862 11.3898 43.4082 11.8006C45.5962 12.2746 48.4817 13.4121 48.45 16.8562C48.45 18.5625 47.8158 19.858 46.5475 20.7427C45.2791 21.5958 43.7253 22.0382 41.8545 22.0382C38.525 22.0382 36.2419 20.7743 35.037 18.2781L39.1592 15.9399C39.5714 17.1722 40.491 17.8041 41.8545 17.8041C42.996 17.8041 43.5668 17.4882 43.5668 16.8246C43.5668 16.1927 42.3301 15.8135 40.8081 15.4343C38.6201 14.834 35.7663 13.7597 35.7663 10.5367C35.7663 8.89365 36.3688 7.62975 37.542 6.71343C38.747 5.7971 40.2373 5.35474 41.9813 5.35474C44.6132 5.35474 46.8646 6.55544 48.1646 8.73566L44.1058 10.9159C43.5985 9.99956 42.9009 9.5256 41.9813 9.5256C41.0935 9.5256 40.6495 9.80998 40.6495 10.4103ZM64.5583 19.6368C62.9412 21.2483 60.9435 22.0382 58.597 22.0382C56.2505 22.0382 54.2528 21.2483 52.6356 19.6368C51.0185 18.0253 50.194 16.0347 50.194 13.6965C50.194 11.3583 51.0185 9.39921 52.6356 7.78774C54.2528 6.17627 56.2505 5.35474 58.597 5.35474C60.9435 5.35474 62.9412 6.17627 64.5583 7.78774C66.1755 9.39921 67 11.3583 67 13.6965C67 16.0347 66.1755 18.0253 64.5583 19.6368ZM55.9968 16.3822C56.6944 17.0774 57.5506 17.425 58.597 17.425C59.6434 17.425 60.4996 17.0774 61.1972 16.3822C61.8948 15.6871 62.2436 14.8024 62.2436 13.6965C62.2436 12.5906 61.8948 11.7058 61.1972 11.0107C60.4996 10.3155 59.6434 9.96796 58.597 9.96796C57.5506 9.96796 56.6944 10.3155 55.9968 11.0107C55.2992 11.7058 54.9504 12.5906 54.9504 13.6965C54.9504 14.8024 55.2992 15.6871 55.9968 16.3822Z" fill="#334bcc"/>
<path fill-rule="evenodd" clip-rule="evenodd" d="M27.0453 5.76733H31.9627V21.6269H27.0453V5.76733Z" fill="#334bcc"/>
<path fill-rule="evenodd" clip-rule="evenodd" d="M27.0453 0H31.9627L27.0453 4.94324V0Z" fill="#334bcc"/>
</svg>
