<svg width="154" height="20" viewBox="0 0 154 20" fill="none" xmlns="http://www.w3.org/2000/svg">
<g clip-path="url(#clip0_1554_12130)">
<path d="M17.7067 3.59467L17.6 3.976L19.2613 7.02933L19.568 7.15467L20 7.01067V20H13.5867C15.4956 17.9691 16.5614 15.2886 16.568 12.5013C16.5686 11.0092 16.2608 9.53295 15.664 8.16533C16.3096 7.65556 17.0056 7.21325 17.7413 6.84533L18.192 6.792L18.2293 6.68267L17.3333 5.02133H17.2L16.9653 5.36533C16.1893 5.872 15.72 5.97867 14.688 6.376C13.6781 4.8537 12.3057 3.60617 10.6943 2.74554C9.08285 1.8849 7.28284 1.43811 5.456 1.44533C3.53859 1.43242 1.65338 1.93827 0 2.90933L0 0H20V2.34933L17.7067 3.59467ZM15.2853 12.5333C15.2808 13.9458 14.9774 15.3414 14.3951 16.6283C13.8128 17.9151 12.9647 19.0642 11.9067 20H0V4.26667C1.48932 3.28794 3.21591 2.73086 4.9964 2.65458C6.77689 2.57831 8.5448 2.98569 10.1124 3.83346C11.6799 4.68124 12.9886 5.93774 13.8994 7.46954C14.8102 9.00133 15.2892 10.7512 15.2853 12.5333ZM11.6533 9.88267C11.6533 7.71467 10.0533 6.68267 6.92 6.68267H1.91467V7.65867L3.03467 7.912V16.5867L1.91467 16.84V17.8347H7.42667V16.8373L5.512 16.584V13.3707H6.88533C9.936 13.3707 11.6533 12.1413 11.6533 9.88267ZM9.05067 9.95467C9.05067 11.328 8.30933 12.176 7.11733 12.176H5.51733V7.85867H7.2C8.36533 7.85867 9.05067 8.61867 9.05067 9.95467Z" fill="white"/>
<path d="M31.0746 16.019L33.5146 16.307V17.427H26.5039V16.307L27.9119 15.9444V4.21103L26.5039 3.84837V2.77637H32.7999C36.8826 2.77637 38.9066 4.18437 38.9066 7.0777C38.9066 10.059 36.6852 11.7204 32.7466 11.7204H31.0666L31.0746 16.019ZM31.0746 10.3817H32.8986C34.6159 10.3817 35.6986 9.15237 35.6986 7.1657C35.6986 5.25103 34.7039 4.11237 33.0079 4.11237H31.0746V10.3817Z" fill="white"/>
<path d="M53.5309 16.3066V17.4266H49.5736L45.3069 11.9333H44.6376V15.9333L46.0456 16.2959V17.4159H40.0723V16.2959L41.4803 15.9333V6.22658L40.1469 5.86392V4.78125H46.7203C49.5203 4.78125 51.4003 6.13592 51.4003 8.15992C51.4003 10.3999 49.8643 11.4133 48.4669 11.7733L52.0616 15.9839L53.5309 16.3066ZM44.6429 10.5973H45.8349C47.3709 10.5973 48.1843 9.74925 48.1843 8.22925C48.1843 6.80258 47.4243 6.11458 45.8349 6.11458H44.6429V10.5973Z" fill="white"/>
<path d="M53.2236 11.1044C53.2236 7.16577 55.8423 4.50977 60.0716 4.50977C64.301 4.50977 66.9196 7.17643 66.9196 11.1044C66.9196 15.0324 64.301 17.6991 60.0716 17.6991C55.8423 17.6991 53.2236 15.0618 53.2236 11.1044ZM63.5943 11.1044C63.5943 8.52043 62.7276 5.99243 60.0716 5.99243C57.4156 5.99243 56.5463 8.53377 56.5463 11.1044C56.5463 13.6751 57.413 16.2164 60.069 16.2164C62.725 16.2164 63.5943 13.6884 63.5943 11.1044Z" fill="white"/>
<path d="M72.2111 16.019L74.6511 16.307V17.427H67.5498V16.307L69.0485 15.9444V4.21103L67.5498 3.84837V2.77637H73.9498C78.0325 2.77637 80.0565 4.18437 80.0565 7.0777C80.0565 10.059 77.8351 11.7204 73.8965 11.7204H72.2165L72.2111 16.019ZM72.2111 10.3817H74.0351C75.7525 10.3817 76.8351 9.15237 76.8351 7.1657C76.8351 5.25103 75.8405 4.11237 74.1418 4.11237H72.2085L72.2111 10.3817Z" fill="white"/>
<path d="M94.4698 5.86658L93.1497 6.22925V12.5332C93.1497 15.9652 91.0724 17.7012 87.8031 17.7012C84.1711 17.7012 82.2751 15.6052 82.2751 12.3679V6.23458L80.9551 5.86658V4.78125H86.8217V5.86658L85.4671 6.22925V12.7306C85.4671 14.6639 86.6244 15.9466 88.5204 15.9466C90.3444 15.9466 91.5204 14.7546 91.5204 12.9306V6.22658L90.1711 5.86658V4.78125H94.4698V5.86658Z" fill="white"/>
<path d="M107.693 13.9226C107.693 16.2906 105.797 17.4266 101.826 17.4266H95.3545V16.3066L96.8372 15.9439V6.22658L95.5358 5.86658V4.78125H101.914C105.274 4.78125 107.117 5.79192 107.117 7.90658C107.117 9.55192 106.034 10.3279 104.208 10.5439V10.6159C106.482 10.8693 107.693 12.0266 107.693 13.9226ZM99.9998 10.2186H101.536C103.162 10.2186 103.936 9.47725 103.936 8.14125C103.936 6.74925 103.104 6.11725 101.536 6.11725H99.9998V10.2186ZM104.48 13.7946C104.48 12.2959 103.469 11.4826 101.48 11.4826H99.9998V16.0906H101.77C103.485 16.0906 104.477 15.2773 104.477 13.7973L104.48 13.7946Z" fill="white"/>
<path d="M120.286 12.9653L119.112 17.4266H108.8V16.3066L110.208 15.9439V6.22658L108.707 5.86658V4.78125H114.776V5.86658L113.368 6.22925V16.0959L117.144 15.8799L119.2 12.6026L120.286 12.9653Z" fill="white"/>
<path d="M126.773 16.3066V17.4266H120.8V16.3066L122.208 15.9439V6.22658L120.8 5.86658V4.78125H126.773V5.86658L125.365 6.22925V15.9466L126.773 16.3066Z" fill="white"/>
<path d="M127.467 11.1411C127.467 6.91439 130.701 4.51172 134.667 4.51172C136.387 4.51916 138.073 4.99384 139.544 5.88505L139.011 9.40772H137.891L137.44 6.98639C137.096 6.62218 136.677 6.33558 136.214 6.14567C135.75 5.95577 135.25 5.86692 134.749 5.88505C132.309 5.88505 130.829 7.63705 130.829 10.7437C130.829 14.2664 132.653 15.8931 134.893 15.8931C136.539 15.8931 137.621 14.9891 138.469 13.3464L139.608 13.8797C138.469 16.5464 136.501 17.7091 133.989 17.7091C130.24 17.6984 127.467 15.0611 127.467 11.1411Z" fill="white"/>
<path d="M153.131 16.3066V17.4266H147.061V16.3066L148.533 15.9999L147.773 13.8319H143.347L142.515 16.0186L143.96 16.3253L143.941 17.4453L139.533 17.4266V16.3066L140.672 16.0186L144.645 6.06392L143.579 5.71992V4.78125H147.229L151.813 15.9999L153.131 16.3066ZM145.779 8.03992L145.653 7.62392L145.528 8.03992L143.867 12.5013H147.317L145.779 8.03992Z" fill="white"/>
</g>
<defs>
<clipPath id="clip0_1554_12130">
<rect width="153.131" height="20" fill="white"/>
</clipPath>
</defs>
</svg>
