  <svg
    xmlns="http://www.w3.org/2000/svg"
    width="16"
    height="16"
    viewBox="0 0 16 16"
    fill="#A0A8BE"
  >
    <g transform="translate(0.5 0)">
      <path d="M7.842 3.652 4.479 5.708A1 1 0 0 0 4 6.56v5.561a1 1 0 0 0 .87.992l6.029.79a1 1 0 0 0 1.042-.583l2.534-5.65a1 1 0 0 0-.74-1.394l-3.543-.623.9-3.1A2.097 2.097 0 0 0 9.797 0L8.219 3.237a1 1 0 0 1-.377.415 L7.842 3.652 Z" />
      <path d="M0.5 6.5 a1.5 1.5 0 0 1 3 0 v 6 a1.5 1.5 0 0 1 -3 0 Z" />
      <!--
      <rect width="3" height="9" x="0.5" y="5" rx="1.5" fill="cyan" />
      -->
    </g>
    <rect width="16" height="16" fill="none" stroke="red" />
  </svg>